<?xml version="1.0" encoding="iso-8859-1"?>
<!-- Generator: Adobe Illustrator 19.0.0, SVG Export Plug-In . SVG Version: 6.00 Build 0)  -->
<svg version="1.1" id="Layer_1" xmlns="http://www.w3.org/2000/svg" xmlns:xlink="http://www.w3.org/1999/xlink" x="0px" y="0px"
	 viewBox="0 0 300.726 300.726" style="enable-background:new 0 0 300.726 300.726;" xml:space="preserve">
<g>
	<g id="shopping-bag-paper-shop-buy-retail_1_">
		<path style="fill:#F78B28;" d="M46.988,296.027h173.857V103.374H32.892V281.93C32.892,289.702,39.216,296.027,46.988,296.027z
			 M126.869,145.664c33.681,0,61.085,27.404,61.085,61.085s-27.404,61.085-61.085,61.085s-61.085-27.404-61.085-61.085
			S93.187,145.664,126.869,145.664z"/>
		<path style="fill:#F8CF26;" d="M126.869,258.436c28.498,0,51.687-23.189,51.687-51.687s-23.189-51.687-51.687-51.687
			s-51.687,23.189-51.687,51.687S98.37,258.436,126.869,258.436z M108.073,220.845h9.398v2.349c0,3.886,3.162,7.048,7.048,7.048
			c3.886,0,7.048-3.162,7.048-7.048v-4.699c0-3.886-3.162-7.048-7.048-7.048c-9.069,0-16.446-7.377-16.446-16.446v-4.699
			c0-7.424,7.325-13.641,14.097-15.68v-10.164h9.398v10.164c6.771,2.039,9.398,8.256,9.398,15.68v2.349h-9.398v-2.349
			c0-3.886-3.162-7.048-7.048-7.048c-3.886,0-7.048,3.162-7.048,7.048v4.699c0,3.886,3.162,7.048,7.048,7.048
			c9.069,0,16.446,7.377,16.446,16.446v4.699c0,7.424-2.627,13.641-9.398,15.68v10.164h-9.398v-10.164
			c-6.771-2.039-14.097-8.256-14.097-15.68C108.074,223.194,108.074,220.845,108.073,220.845z"/>
		<path style="fill:#F78B28;" d="M249.038,230.243h9.398v65.784h4.699c7.772,0,14.096-6.325,14.096-14.096V103.374h-46.988v192.652
			h18.795L249.038,230.243L249.038,230.243z"/>
		<circle style="fill:#F8CF26;" cx="126.869" cy="206.749" r="51.687"/>
		<path d="M277.231,89.278h-56.386h-4.699V56.386C216.146,25.294,190.854,0,159.76,0c-6.597,0-12.908,1.198-18.795,3.289
			C135.077,1.198,128.768,0,122.17,0C91.078,0,65.784,25.294,65.784,56.386v32.892h-42.29c-2.594,0-4.699,2.105-4.699,4.699v183.255
			c0,12.955,10.539,23.494,23.494,23.494h178.556h37.591c12.955,0,23.494-10.539,23.494-23.494V93.977
			C281.93,91.383,279.826,89.278,277.231,89.278z M159.76,9.398c25.909,0,46.988,21.079,46.988,46.988v32.892h-28.193V56.386
			c0-19.336-9.792-36.421-24.664-46.58C155.818,9.562,157.769,9.398,159.76,9.398z M169.159,89.278h-56.386V56.386
			c0-19.228,11.62-35.772,28.193-43.037c16.573,7.269,28.193,23.814,28.193,43.037L169.159,89.278L169.159,89.278z M75.181,56.386
			c0-25.909,21.079-46.988,46.988-46.988c1.992,0,3.942,0.164,5.869,0.409c-14.872,10.159-24.664,27.244-24.664,46.58v32.892H75.181
			V56.386z M28.193,277.231V98.676h187.953v192.652H42.29C34.518,291.328,28.193,285.003,28.193,277.231z M272.533,277.231
			c0,7.772-6.325,14.096-14.097,14.096h-4.699v-65.784h-9.398v65.784h-18.795V98.676h46.988v178.555H272.533z"/>
		<path d="M126.869,169.924V159.76h-9.398v10.164c-6.771,2.039-14.097,8.256-14.097,15.68v4.699c0,9.069,7.377,16.446,16.446,16.446
			c3.886,0,7.048,3.162,7.048,7.048v4.699c0,3.886-3.162,7.048-7.048,7.048c-3.886,0-7.048-3.162-7.048-7.048v-2.349h-9.398v2.349
			c0,7.424,7.325,13.641,14.097,15.68v10.164h9.398v-10.164c6.771-2.039,9.398-8.256,9.398-15.68v-4.699
			c0-9.069-7.377-16.446-16.446-16.446c-3.886,0-7.048-3.162-7.048-7.048v-4.699c0-3.886,3.162-7.048,7.048-7.048
			c3.886,0,7.048,3.162,7.048,7.048v2.349h9.398v-2.349C136.267,178.18,133.641,171.963,126.869,169.924z"/>
		<path d="M122.17,140.965c-33.681,0-61.085,27.404-61.085,61.085s27.404,61.085,61.085,61.085s61.085-27.404,61.085-61.085
			S155.852,140.965,122.17,140.965z M122.17,253.737c-28.498,0-51.687-23.189-51.687-51.687s23.189-51.687,51.687-51.687
			s51.687,23.189,51.687,51.687S150.669,253.737,122.17,253.737z"/>
	</g>
	<g id="Layer_1_26_">
	</g>
</g>
<g>
</g>
<g>
</g>
<g>
</g>
<g>
</g>
<g>
</g>
<g>
</g>
<g>
</g>
<g>
</g>
<g>
</g>
<g>
</g>
<g>
</g>
<g>
</g>
<g>
</g>
<g>
</g>
<g>
</g>
</svg>
